<mxfile host="app.diagrams.net" modified="2024-03-03T01:09:28.532Z" agent="Mozilla/5.0 (Macintosh; Intel Mac OS X 10_15_7) AppleWebKit/537.36 (KHTML, like Gecko) Chrome/121.0.0.0 Safari/537.36" etag="cd8CEmKjud0tiepUGQCc" version="23.1.2" type="github">
  <diagram name="Page-1" id="x5W-0FvrhU0calLnZOZh">
    <mxGraphModel dx="1920" dy="577" grid="1" gridSize="10" guides="1" tooltips="1" connect="1" arrows="1" fold="1" page="1" pageScale="1" pageWidth="850" pageHeight="1100" math="0" shadow="0">
      <root>
        <mxCell id="0" />
        <mxCell id="1" parent="0" />
        <mxCell id="ExcJWYni0PzGswyxbrXZ-1" value="" style="shape=image;verticalLabelPosition=bottom;labelBackgroundColor=default;verticalAlign=top;aspect=fixed;imageAspect=0;image=data:image/png,iVBORw0KGgoAAAANSUhEUgAAAT4AAACfCAMAAABX0UX9AAAA8FBMVEX///9cTuUAAABAQLJbTOVVRuTNyfawq/FMTEz5+P5XSeQ1Na/Ly+mMguyjo9gvL65LOuP29vZERESGhoa1tbXU1NRhYWFZWVlSUlKkpKSbm5s/Pz/m5uYICAh4eHjt7e3Kyspvb2/o5vvV0vjAwMAdHR3Q0NDn5+e2trYpKSk2Njbc3NxSQuReXl4nJycQEBDDv/WMg+xvYujz8v2hmu/k4vqBd+pjVea6tfNwcMNGRraIiM0rK62Siu1/f3+RkZGqpPBdXbx3bOnb2PlqXedHNOMhIat6esi4uOHW1u5PT7iurtyclO6UlNG9ufNkZL4NU1eTAAAJe0lEQVR4nO2caUPaSBiAAYlcag0EIYAQEBAIghWv2gIe3dp23e7//zc7V5LJMTkIgq7v80WHJEPmSebNXCSRAAAAAAAAAAAAAAAAAAAAAAAAAAAA2Bb3T9s+g3fN/uFlZ9vn8I7Zz0vfb2fbPot3y34+mR4/7m77NN4rSF8ymU/vX237RN4nRF8yLaUvoQavANWHBX6/zW37ZN4fhj4kcHwNITAqlj4cAj9DCIwGrw/V4OQ9hMAo2PSREHgOITA8Dn0kBEI/LjQufTgEzqEfFxIPfagG32SgBofCSx8JgbsgMATe+rDAzxACgxHpS6bz6RdoxAQh1IefwRe32z69t46PPiTwLwiA/vjqSx6CPn+C9WXiDUbnDg7Wda5vkBD6Dh9PVs9/78uPD65PykvXK47E/HouFAofXR/uhlyukHfuYKewswP6SD8u6mB07ieWB/ok8m96vB8pBP76QuSBPokl8ofz0CGw8/yJ2QN9ZhLV4HC5Hvw25IE+Sx+qwcngkZjczztLHuiT+E/SUtCMOmqs7OyAPm99yTQKgT7dkM7Xb3Z7oM/xYVq6yIiy+/u3Qx7oc+rDIfC714x6bu/3J6c80OfWhxoxeXcjpvPsuvNAn7c+VIMd6ypnrqD3EfTNx37+xPpICDy38vn7wVve/1xfYvdCSq+kj4zms37c3oNH0PsQ+hKzjCQU6K8Pz6jj6aTZV6G7bek71bqaLm/muzovkqAGB+lDNRg9gvd+vC19einFKLY28oUnj94Cg/WlsT5xzeX1Ncoi1lvIbi9l0lhrzmL+PI49avBa9R2lRJTWWZL+sZXxcDN3H2L2knaHwLXqawv1LddZEP4qVTcU/jBXc1cNfo/6jExHw2mqvc6MA3E1Yt6hvj7N8khvnTZ0fY0Zh+H2u03ghvStM/YpNMv+GrOMQOclz9XgteqrHbUpR/TR2Gsb6cEaC6BSfRt7Zjh5+mw9g9eqz6JI4/qrnD7Vd7zBZ4aDnBUCX0ef/L/WhwRmbqjAjenTtS5C0M3S7TVRZnFN1vv4IK1vO8pbX4vs2he0ovvOvcvdwUDjkujstCgXpDNP5jemT65VUSMDMakvjGdlt55F4FT/rIdi4wInm6gIslqsoz/90llxSGLoca9eUWjZ1Gy1MqKxD++eLSo0f7UyIrv2RpWaYaFWRDvU8X9KpYe+p4oPaOCLUqrU8d7H5NvlxhIlUUt8WrV8huDkGoXAjehTpvxTmJVPYc9PrYr+qInEGU4OZVlFJZvoCc3x7O6RO3LpfKSrJKse/9FUpd9K+8Voax39KbPm4qBRm3C76i21zh0a6Wme+3MhbUJfzVHkBaev1iY9sBrrSxwr5MipljjtOY5Cn3noU7w+XHD6VHJZUuhg8kXDoW3P0ciWjNiHmd1vQF/XWbpU19LHKDk6zGgPe8EQEy9TA0dGlKWlj6EwfQFokfShRszr6yuyUxuOhqwSV2SnviPZrg+VNov+HE97k4l5G2o2fVOClmiNrE/MjS2nvlI4fWpEfZjX1cduvpHSkuUy65f0nfoWDn3IlNpUFa2vNxpltWgq0AfdbpMkjjWCbOZT6vb73RpzvXTqq9n19ez3tplsrqDvPOnjL1hf4e6nnz4W+egDt5UlCcWu7wgFdk7fZOnoUci05Gx4gDVcjI3sinRpqkzvwIpNX6+JMzT0Tc6URkseGLdqr6qipEaTZyvoSzy9iKeTAvUVnt2/j+P0yW2+6Kz2NXl9FVpyU1/J3Xaj4f9M5vWxKC8P7bcNvTdHDU5fm146qm9SY9nTC9lb6vxVWLGhv3stmg0J0Fd4+OWRHa+vSv6tsS2quYHpmxjhhumrlj3yW9BNLS999DAzaNEGT69s6htqbAvVZ479ZG2XlWlftZ+Uc4zEhNOH6q3ncixeX91WPFp23Jhl+ozCMX0jz7OjJrI++hRjV51u1YyDhuaQ1rHtOjJ9jrt2FX1XZEHQ7OXGKwT66Cvc/SNYSsTpa1F9wzplaEpi+sybjeoreuYXQ1/91NjiqW8Nd9/9xR/y9+raIwSK9X179qq3tEwufXZC6tMUlVKNoc+MpK+lLzOWruls+MlF3lmDRfoK/+6Jc1yHPlkdOlpqb1WflM6P6XqW2W3eEQK99RXuDvzWoK5DX9N11JvVR16xkSGBrPOSzAfpK9x99f8ZV5C+YbC+gfuoN6yPrGehS/pO9g/zvvo+fREGPaG+tsLTDdbnMW8SQV9q4/rwkr5HuqTv/NGqwS59hQefoMdw66u59vHX16KP6IouI6I/eaf9zetLpvNJ+p6w2b05o+7QVygchPj5Jd/uo6fpnqn013dq3kSYYH1ms5l2sa1m8wb1ca/YmM1ZCLTpK+x8DfUGE17fkeC8wujrsa1++kZ2DW1T2hb0ce8JO6FrYnh93/waKzz8kMHSoQltJRrC6MNPAMxCrM8IkmwqlA1SW0MGG9aHQqDE3hN2jufjLH2FB9fIigheH9PUq+mNRkPXu6U6rckBsY+OPC1OW61Gl7aaBfqMoYezLsrceODgurwlfdZ7wjr3Y8nQVyiIemge8Ppkc7hz2mODRG2u2AJ9coVuHmZHZuPZW1/LNSyNwBu3pY+EwHMi62qeJ8sjv+14DEuJsY02q67CEQ8BDRf3UQJ9Xi1E8iDZnj4skL0nbBcvD9+7Cxn0GPapIlf/YYqdBehrOaeKhPrcEyB0Rc029eEQuE9uuBxe2xzxh9JslCrLkvzcIPncSx8dEq2beWiWv5FKYlqR15fiJsW6tp5NnbUBqb6RqS9l11f00pdNREcw14EbMSvkhpHbeIq6aA6m6dZs6vRModP5WraCqJqlW1Zxmpts0I0B1MFpYoA2VhfUmNZuYvjvaw3MseqKYoxQqTRDc+D/iHyf2b5u4s1V02aNJFdZCSacKlrrqxJbZU2LuMZZLgtXXXjt3O+Xt7HwxWemDd4TFozfRGVakmK84+VDEDzPC/gA+mIB+mIB+mIB+mIB+mIB+mIB+mIB+mIB+mIB+mIB+mIB+mIB+mIB+mIB+mKR8XrFBugLC17SJxQI+oJ5ErwkB/SFZPdCUINBXyhmGY+X5IC+8Fxdev00C/SF5uTaHQJBXwTc7wkDfVGYXd7YQyDoi0ZnLvGtQNAXFdtPs0BfZHJ/bswQCPpWoHNp/DQL9K3EE3vfM+hbkV3y0yzQtyrkPWGgb3VmcyQQ9K3O0/UY9MXhHBbnAgAAAAAAAAAAAAAAAAAAAAAAAAAAbIL/APPtB533qjL2AAAAAElFTkSuQmCC;" vertex="1" parent="1">
          <mxGeometry x="-90" y="40" width="140" height="70" as="geometry" />
        </mxCell>
        <mxCell id="ExcJWYni0PzGswyxbrXZ-2" value="" style="shape=image;verticalLabelPosition=bottom;labelBackgroundColor=default;verticalAlign=top;aspect=fixed;imageAspect=0;image=data:image/png,iVBORw0KGgoAAAANSUhEUgAAAUQAAACbCAMAAAAtKxK6AAABVlBMVEX///+3x9c2RUgAAAD///0qtPz//v+GlqYQWYT///u3x9aUnJwrPD4vQUQ0Q0ZfaWu8zd0eMTXg4+MkNzgquf9AT1IAr/sXsPtUwvw0Rkim3P0pu/8lNzvd8v73+/+R1fzH6f2uvMrZ2dnu7u1JT1WIj5BMWVucoqN8fHyYpLF1foi1ubrDw8MAHi2pqakqMTZvb29fZ3CTnKYAAAuksL7Izc1bZmi9wsSBgYCHj5JVXmVncHg2PEHp6egtLC+KlKB3yflOTUwro98UOlGxrKdlYF41ODggLToAO10AX4cKgbYWltUAGzkAAB0XNEAxLScaVmshd6IfjMIASGQfWXoSCAAZQVMniLgAaZkRFhENLkIQTnJdWFIRWYgABC4AFyoAK0odIicAABAVHiZKQzpzhJLO1NwPJygcIyxEYXMAJjvP7vptxvu44fcGCACO1/YkHxw3MCjKvLlNAAAY6UlEQVR4nO1d+1/aWNoPnCTI1QCRoASQAHItAoKigIgdHG1nd4bqttNx+u44rtvZUbfd//+X93nOScJVxXqrnXznMxbIyUny5bk/J4HjLFiwYMGCBQsWLFiwYMGCBQsWLFiwYMGCBQsW7gsix/Mcx+PLZJJ/6rN57qhnm5VWOfDUp/EMkax/l+119/Z6WiEnAXKk+NSn9LzAc6Xv9w9evd4VIpHdH/YkyWVzSS7Sfurzel6o/60ficiygIi8WtsEFm1StfvUp/W8kBX6f99lHAqCHDn4MScBiy1LoW8DH0jhT32DRSGy+7KbALO499Tn9azwFuRPfvfWFEZBfvOiYpOI9tQn9oyQPET25N2jA53FSEQQXv7D1So99Zk9I2hzuk958/YdKPabd0dvf/nleL+Wyjz1mT0jFH+WDZ9y9P77018Oj+fm5g72a6uWJM6O0ivTGO6++DCHgL8vq1akeAvUjyOKTuPuyzkDv7wvP/WJPSuUj/VIW351aJJ4SpJPfV7PC9+9eEdZlA+OTRKt5Pm2aP/6EqNE+cgg8cNx46nP6fkh1iU/y3LkUCfxw9z/WYJ4S7TLp/la959vIofol+eO9/8sWxzeEgXStEkuKffj/ou5/d/+mUrXrcr2baERWvyySVu97Z5bswj8EnRTkg05tHLlL0eSYPnQJuUtDr8cdUIF0WYlKHdAcQ1JdLksQbwD6mtMEtNPfSLPCePeN0mYb84/ydk8V4jFRu+UIPbK6WKS204gibaO1a+fGYUesPdHqtKsNLdSJ/C6262yEGf+qU/tmSDZIKSVr0kmXLn8KiGVmmRz2RLZO87Oi5xWDHDiXaaA2B814i5zPDDchDQTEvMjBiSp1iRkPSHZpM4dfQvPlfzBjxt3miNp9/s3v2IS23tkKzHKIIY2LptkAxo7wOLW3cIcnlvx2b13swql4OKi/+vtS2iEVMcpNMWxliIV4HO1cKdD8At3JtHtsdv9X62L08jJhBgO07hJVhNSgtxJFsVvnMQA2XZdTSGotVQjpAZ/7sLit07i57XEtSSCLCa2gcXqXXor3ziJWVaquQHbJCHl77AE59smUSPNmzl0uRKn25KU+vJe6bUkXl/sNbYOk/iVlYe75AZd1jW6BmS73t9meWdMK5QypUI9idc8RiKQIAYKpVKmUL8iaIlppYzbnSmg8Is0NhwiUeSSxVGZjNUz6WzDXWhPIxiP1tbqD7aUrU42Z1BmZDEPZrFD3LNOrGV9fhXh98zXJyUxkLb7g3SzulKKTewd2MTNHo9H9S+4k9w4idyG6vcP+bl22uf3eLwwXF0pTM7G1bP2oF/1rz9QoN4js3EILK62JMfWTKtweK5d9nt9dsSi3e71rwe4ERJjab/Hh5sQvqC9MLq3OLrZwzIdk0SeK/gX7d4Fc7hbheH2xUXcw6vaxyPa+op+Mv76Xai6EslZLKJOYofkHI7TGarcIgiKxz4Mb7A0nLFoC6ObF4MjuXlgbLNPpRpqkChyhSB+uqIfLLCgjg73Z0eSw7Tfp2/x3y3vvAolUpuRQ2CRpByOJpnBP5Y+MupA5/yql9LkQYnUSaz7vVRmQFf9Otue9cHe9aCX7Y1AEbN/pP7MlMSCX2dERDmsB336wYzhds/KkErPq1SkQddBne/PIfGiaXx7p7MKIsTclROHw0FuXkTCLtLrzxY0TStk/YZc6SRqflRV0PFSXdM2Ntlm1ZTFgOpje28E2gEt4/V7gkxxDRJLjEPdJAYoh96P84VAsq1lfHRv+E6MK5z3UJPgb2RK9Yfx6uLnyswkoj4DiVvkpkk1epHBrBEOJdP+xSESY1S7guumRLvpZtNPLHhRv+fNYKqYzjC50knUOdTX6oq+sdkKPpRj1VjK21CpNcnct0vRGq2TbomeZJKczU6irUbyDsfZjXnLCl6FvzBklzb8QyRmUTTUTXM4z2lIxKLKaEuj9g1tHoCSmBzlkH5o97tRvUQ2W2yessgcYB1HexcC9yaDOI1YzB72dwXh9dHv5TpG2rnZObS5SAVEce0GfaaMqaOLuuuqSWLAjxZydI4AOk/PJt6HmVRB1VtTo3Lky7tJZwoa0yfxYMHhuIsHr4ZfCfsS4Qtd9C7c43JKngtk//7zrhwRFEGQhVc/bAeKt/ArumdxtG64iWUdBME3zkImaJCYBip8C2ObqcCAKPJcSUVvPPWqqdB5R3SZEbs+MqwUHEQzdN77TRXdv7yWZYGt2RRk+c3v2SJJ3JrEyvVGMYkOcvK8UccpiRAv2tWxUIPnsrAZhIfn1n0TYmyevuGggENDOXG24Ej0t0nVndoDntuEXTwz5wezoPTHyyP9rh5Z3u33d/vpLyGxeX0CXQ/apyXJBZV9jPo3IYhgV3CvJrxAbfVMP4BBYnDAMdoGPV5k4OdxgkU/7WbwnB2/0PsshqerW3NHpwdCRBYir4/68G8/czt1dpEtB3qWa3NQ1CZ1sgre9jMSKcdT3IbORlud+hVQ6CT6hyQLzd+wfU2u4JjFj7pXS04zHXdBuyVt4Vrh037kzXGfKnW/dDvHUiPNm0nMoA+dHBHzMXY2pnOMLRifHay2erX+MRJV95CjzeDwQQ4d8HhpUKjpQwLsG7u/8KZ0JjXpiuHD7w2d/rmUxCbUzNrcIWdA4g1VRSRRnTTlRo8FZWfcJCIgLjFIvMIk6o5lU6/pDA5WMFjaoBGo127qL5Locd9jhN3I6SR+6BvO5ecSt711CxIrGGzfZBPpdU3SzNuvJ3FWSfT5hrvXKIkmiRkatKvrSXPAvZOYrUrNfbp03bzzdr/ElddmJdEFfqXluDlloTZxkiVqE8ssYpx2XRg9Lug28YoaB1NnX3BIzNE4eNJstnSQJUpDe9w7ie68VP2N3lnG7hiVX5GeyBVnNoouqUpNoqN1fWG2GKRx8zgK7HIZmesT16UZHyNRniuugDkWn2fAouGdRchTqFseibvvn8RCSpK6fxokym/+/BetGb+fWZ+lFtVmB7l+MUQbBUKd+HjFxxyKiFHHpM3Me/XLbXqnqzs3CHGGWcQ4Ed0YuOVFLIKNuqx7J1EkOUlqnh5+ABIju4f/KLI80D1zpJijAc5NfoVlLBNmDcNESHzhkJixTAQxtGZBkwwc6LNPnZjZRJ1F3exlWMaiealbVseKrvdOIlfHxUmO1Iu5A+GImCopkhnrOCCIHSTRfnLDcRhf9SHzL7J6FQbTPNVAdMDDm2MoUHpAh8UIz9T1U0ji4oJ3SBZhT5zNk/VgUdvrGxfw+yeRrvtKOc5O/vmPiuNsUDoajrcTuZxrOqdSnlYfQJtvaOHzNMNbHMnF2j6swn7UOCyKNlHx/MNhTGwFN+uqiA53qLo4BCQxGNDrg1QWYTo6nCbU6spE1PAAJHJYBSOVHOVicBHdbQl9L8D1b+1HAlrvQlcsSbahNqBUIycO5ptvDF1ZPdHvNs99g9ZNPbotTbLktmleskalyygjUKNp9yyYX0IgU2CH1OuJ69T6mT7artf+DemtuwcHfhgS4RK6TKAGK4hFvc3ismWwk1/P5oC8f7dSHduARVfihAbajs4sa0ncNNjweN1aMpYMFFaCtBlgprhYK1tc9AbT9WQs1t4os9K0mTDTyguwtF4ItJPtwrwaDDITalS2qR/2BfWQWtM7KIusEG4PelTT4j4UiSB5YyRyGqmyZwYF4HDwX0rKcRwhjfUhbV7VlfmmOhiC57Iq86Kq1+4Nso6JZyGpXwyoIKvRerC/orIejNf0uKJeuoY9/aoHNoO5+0hL22aPBTV60efVWWR5CngVv6oGadfPb3wfD0diMj9GIphF9NCSEdz1quB/20VOMxuBrhbzzDe7Zh2bfqPfSYUE5GZ+uBucYcTaDVW0qwvDpZaS3+yXMiHz048HfecmVr89hsDVPWPNwaBxrIcjkauN2kRAehVE0SRxxSCY3ZNGlzMxDjtk1qeQFIYvbNEzng7XF1TfYLtHTY8a2rpdHSLR+5EFTAMSRRT1QXkmWfZ7FgcH85ph5gOSmMDK6mg00AOhM260SKYMNrts1Xvtva7LjlYPtFErZNylG7vgSbdPVT1eAGhtOjnS48CnMZYW/aqXbVazk/WK0oLf2Ftd2WA7ax896oI+T8PvVY2gHxdzZ4PGcJ87NgifgNGPD9KwLySAxfLo1yO+h0i8ww7Xzelsii16Y1+HkDzjsPKZEzP5Tq1Wc1Swc3rDN6xl0uX5+XTmirt7tVI6Oz/fcNen1zNg8/z6fNq9YSi6yNXTaXNsYT49Mm1yw51dX8+6RykLNMp3W+B7FZqSVGu1xxgI4LKmVAli4b28VGHbStgJhPjwpOPQDaIYyOthpORqPv2jrqYHW6J4w4C7AtjJ1Gyu3GT6m4HExZVPpfCWixoNuQopfFhihZVuaDE20D6TcDW8ETle2wy/hwvg+dtZs1sO/3K00fq1JjSI57YTeM8FC7FzqWw2lcebByq0rcJSFY3bhH1tuWpNt5Wk8Bd9tEsZuMpNdo55rji8sklKJGzSUK4H+KPOZYC4RurgzZv/sNugq6Tf/SvSqIHWSqmpjdg9k0KX8Yc1VShW61zyf2f/6b/Gqrh8kKcspo7mil/botVHQLkG9GxP3ZRNTBZuhjlMH+8qEUF/il0fWXTVXrz6C5KYxKilM30dSHqcRKmaytUSgFoOdJnrvjzEJiEri8svsPYjbe/X/3okfodupTK9htCYIHGrpsczLYy+enNzh6c/7UbwQcdHP73CSFy6Ks5x0uV7X+1deHfDrzmDkkm0sI+SANkzSEzot2ZIKcpU73juw4e5396+6//UlyORXxI0EL8iWHTyvBPwTUophtRXkFiqSFIuXzXjQKMQ5rLplb/y8dwBtmiO+xEwjfIB3g1Ym0YihGt8bDkOWI59gywG1iiJ0zIhSFmk5rROfiKva2XDeOLaG9YsRNeSmE4iH1eUkAL/C3EQyW9Mq+vb1JD1JrcESEfamryzCoLvgiFM6X2dxHfUQb9qXkUiF42EBCF8cREWBCUce7Q84pFQQOcMmcZEnFgkTanC+gIDQMJSrWyV0/qNIcXfj9kDUekDFeWDzekk8nwsIgg7MSzvxnYU5YIZRp5KKG+MYR/x9DNUf/1jcegfbKE4uWFBhtfiyBTiU3xBJVaXSW2PapiYJXmpwzIWqdoZsNja6uSq+T9Ig1rFIvkTn1x3/I6ubvwTu/6TJIJDAebiTid959wRQss8+9jJOw0W4QWHfscp8uyVTh6Sht7IIErkcCfzLXVVA2eFszwBi4xEm21te1gWS3jLuET02HDdhTKYQDeequLzDMDftFhnRWyQP8EwvovIu0eEjs9NkshFFSGs0wIXqihhyqczdr68HNUlLhoFJYf3MaSVfQ5bYtEoiPHy8rkpbc7oMg7S3+E2GMo2ik4+unx5/gSSWCS6s2iRXiGAJ9AuZglpuiRb7oQKaaXIVsLXOpCPbGG9m+bQOaInyYV//W3/1asffi1mceUEhDjjubPIx0PCuVHeEZ2fLi5QJ53xUCikhMLLlAMhtAR2E3zPkvM8AhtCO/hxPBR27uAwGWhEGY2GQwL4pwvw8SJKOJ0ighxDEHoexh0j8UcPozSjxwzJCNGxd+aidFBz2Sn2qFWUNvOSdIbSuKk1wd9I0pZBV733qzupzyRtTWSQojMsRJzmW7R4YMhi4GPCOxeCElrCbRElLigXF2AVlkLKxU5ECH2CT5eUcDgEoxQhdOmMidw5EBjeASIVlFRnWBEuYB8ldI7zLiO7O2FBF/THhLnyBvQ0l28281X9CSRSB5eHSSmaF4IQajCwWpUg7NlLlvLUp/93yJAmP1ML6ppcl8PzshIeFg6QKY7fUYRlNGhgLpECGb220xkF7x2Jgqm7UGQOSUT2nOCYFAX8Ukymg5xRiEphwsuQAKrsjIWBNrQZIKCw8VJQ4g/O2hhKQw/MYE+/Md7kUNMT5UKFdk/zXBfebgHDnc5JOk1ZTA0io8B2iu6Un/TzfAxc8wiJaANDyiVPvW1YCIP3APdOw/AdQTmHt9yyEoohiUqcOqEoCiwYAIWaQ/4c9wZ3teOkJhTGompH2EE+hYRHj+i7Ux87ImEjBZS3ls7m6dPB0lwDx+XzeVvC0WzR9bQJomc67Qap0HzGtTYZcSKJ8TENAz4ENF0glEBUDIUVDSVYQUWgNhJIjFISmdsAzb3g+YhCLSVlHt7uCDL1Q3ws5hThIEuMOiB8+bFJTO5BNCONU5hbJSUkKtFrGSQWQa9dtBmArdLfMa/OdzkxWcx0yWqO1r+l1JSbJSmJY1fFh2UWLfJAlxLlgMQlncQIHWCQKOuxThwUOCaA/FHmQQjDHA/qLGMe6cSQ6BycV4yCzfXIiPXIdtUlmaZRkmr5E5JOcnhjvev9fymJCTB15mpu2iulj5aljmgVHA3jsDJtSYkYk4WLIcdCXcvAcEUF9Atw4fTdgESFkhhm+4C8CmACQlE90I6HYBj/iSaS4U9RkMdLBXwUgxB6fAcNUco2Wat0aiBmiVo1D176cwYdbyuFzRfCSGyg+exQoaQkbmEfX1rtuAwz6pISKTItB+f5Ye/MOy/D4RiENHHe1L5zVOdrSXSCTKL7jeqzsGHOaBwcNEQ5YC1ALMMmlpxPkZ1rDWJiO62Hy+VVLDWiPAJFuHyxpys+7TjTAKiSN/0Q+JTpVTCICAW8eiORCysRIA18DV4oqHMI7d5VJEbYryzycfDAIInnuiTuUH8PqQ0fO4/LIMtO1H8jm+QeXZu1LDJXLtRL6UbaXagPvsMGAfHqELp0RDrFk+uRFmoukpiiJDYr7Omokmtz7arbntF9Cjuc08hN0ONC8oc+GRmiruRKEhWWF4Iw7zjBJi7hLJD6ycoO+GhGKX4eB10XLulIUTTzoEdDg2zlEolqhXyeUMU0wWyPEJa40LUzhffkpHl25nBU6eo7KY91cQgwt8hn95VdPnSmpsMEQRSi6BQUmqDxThmTk6tJXKIkQhQDFIEMMxlbDsF8MfiDb0WYMo400yAbzAWYzscVxfLvNZYNJyqkO+ZZKYnSCam5aGGBLYQrlt+D4J7Cp7ixmU9U8y2yl75m7QNma4osXDqxXBC7UJRPPGUNLCNVdfAr8DY0nURBOMdIUBbABDiBu7iTFoWATbALIfRXkE6j1wbukHAYK0Ag9KhtnhJJDILr0zHf2luleRxdwu2SKuaibq2U3iM00ZG2eo10qXhjpxkslqJEdpaWLiD12HGiLVsGfuJLS2El9AnFRhamkyhHIDmEDBG55LAaFF5aisuQ5UCcA1FNeGn5Mg75o5Mm0kL409KFANHjfVJ0I5IYaONCYsqiDYRxSKICJM+69fjQK3zSX880lwWybcOmgbQ223GcWDlQFFpKWHLSApdzOaJgwUEPkcMyI/GTzPzxsiAgiUIEkjrYKxylJUbnJxbHRCCrESHuCdF3SiSG+bjzExbPQ8LFI+cr6VVaks13mDxKuRPSNR5FUCdrNJ6pQiDIlnBD/I3fMV/okgUmvbnGrHoDaha/CF/EL1nehv/TpstlzHSp3PAL6ntREiEpvryM6nOAW1qKx5do4QefOxJd2rm4iC/TIiJWzi5hY/RxdRlSPpS1aldrb3RoBVtygdyRbLFedO+RNdoelWoky0JFl9SE+Ke7DRaxYzT9Zl8yQmuwg0o2/QgLENcGdEu0DDG0E6vcDureTr1mO5jx0WuyInoHaZUykUkwXlxnrCS2mtebe5AgF4m+YCmR30pt5XN6diM5vrvN0cY55PCir79mRuLIDhwqsr5Wjta98Y+xlVYZH5lFJBFyEo0uetuosXQEEpBELTGo5iRIkSuC/6E2UHINlXlqD/6jSuCdH/oQd8dnLLJW9eX/9dzIfSoGcliq0VaR1lzlp76vashhrvzgjxWOh+SbBz01enkszDSx0A9aUJ/WZAZDSG/7L29u/qe/K8jC8Y+QL8N/+fTDP7PwfGnpgY9wDygSfQ02WwWtNW0TNCYIvde4ffZql/1eX2T38HM+sdl48qXFXw32aO4rnemBdDI13q13tRjB5YPdyOAnnY9I7xvrv98FAfZQqxq9dR79Wjk1/JB3KdHSq1vzkf7gh7EFeffgbo+H/rZQJxVwuFuDW+eLpNVJGL81AFGjHnuXgbif+vLgZ9qFg9PSX28h4hUIdMkfZKRXXIBwOtXM55sQMJaNDe7XMv6kc5/pNL1R/+3f7vVBR88bWqkwFqpotFJDthuDss53ryl5/V/eRNhPZL98ObdvkXg9xGRyhNn6G7pmSRZ+frsbkXcP8VeJ9y2zeEukXoMIKuzX7vsvcTHYh99ulfVZwBUO1B4qeJ/AS7ag7jfrJ0xvB55z9vaFiP4L44zEHx7m8crfNkqExTjsZ9o/vHyftEKc26P9vxcojJTEY5L9xlZePxrSBEIcJPGHH63c+YsR+N8hkHiMPzhg6fKXI0OOSO/r/XGtZwEnp3Uf5v7/vxIsLbZgwYIFCxYsWLBgwYIFCxYsWLBgwYIFCxa+Yvw/HMLlNlLNiv0AAAAASUVORK5CYII=;" vertex="1" parent="1">
          <mxGeometry x="530" y="40" width="209.03" height="100" as="geometry" />
        </mxCell>
        <mxCell id="ExcJWYni0PzGswyxbrXZ-4" value="" style="image;sketch=0;aspect=fixed;html=1;points=[];align=center;fontSize=12;image=img/lib/mscae/Docker.svg;" vertex="1" parent="1">
          <mxGeometry x="130" y="42.25" width="79.88" height="65.5" as="geometry" />
        </mxCell>
        <mxCell id="ExcJWYni0PzGswyxbrXZ-6" value="" style="shape=image;verticalLabelPosition=bottom;labelBackgroundColor=default;verticalAlign=top;aspect=fixed;imageAspect=0;image=data:image/png,iVBORw0KGgoAAAANSUhEUgAAAXEAAACJCAMAAADt7/hWAAABKVBMVEX///8AAADsHCPrAADsGB/rAA7sExztLDL1m53vUFT1lZeioqL+9PXrAAvrAAbQ0NBPT0/uS0/4uLqurq7zHST0jY43Nzf2pqj83t+IiIjrCxXt7e3yen35yMmQkJD39/fuOj/zhonwWV3W1tZ5EhUgICBERET71dbh4eFjY2N3d3f84uPy8vIVFRXuQkfGxsb5wsPxaGtubm63t7f60NH4tbY9PT3ycXQlJSXwXmJpaWn3q63kGyJLS0vxZ2prDRAYAwM4CArtMzgoBQbPGB9dCw6Dj48AGxucNDd6ICPfLzTRCxThP0NtHiCtPD5GAABvTExBCgyLEBSGAAK5W13JAACkExi6FhweBAVhCw6BDxOFdnegAACPAAAuBgeIPT+eExeyFhvBc3WAeKsSAAARE0lEQVR4nO2d+UPbOBbHY8tWDmwTQoDgQA6YEkhoCEdKadJ2yjCzuzO722lnemz36uz//0esJF9PhxND4xCCv79AhLDjj2Xp6enpOZfLlClTpkyZMmXKNEmdXV69+/5Cy64eEnXf32jZVUM6r8dHvHdxYc3lRLVaJ6cg7szl5Asja8OgD3Z+K/1TFch5io+e+ADbBr1qA+U7aZ9rw9WN1mMnvoWM4Lox2k35ZO2MeK5CL96lvQqmzbyW7tky4sROIy0cnRLQF2s2aeX5dE+XEc+9cgnwkvf7qUkufSPV02XEO+TS3cvg0xrWDTNVKzEjfkoI6CHjnqPrdiHN8z164pZpcIgvCZBUe/JHT3xArtwB3cgF+Yx8r9Lqtvdz5fDux99f8X5uB8d49MTJhATvwQLD0J0K+21VO/OKtrU7I1/VGt4vR8ExHj3xPaybXL9NuhV/INW0rlf0k/anOx69qWk/eb+90J6Gxzf0XG5XIj4fr879i1w+GsCCEjEQ3f7a2tqfNe0va0w/3/zSX1OpOE1//eXmZ++3v2na3+lPYgwRm79V1A2BuHG9t7dXTHvGuwCi3TbnSxk6FAnG7ltN+4KZCBwD303hf77WtNd+CcWLReBeRfvVfXGYnyhxbl4/8B/38WdCvCpxuaOqhPgP06u5p/fFYX6SiFcC4t/Pmvj3CYhfxn3P5RHpQ9AFLNiyyQNumrb9H0o8EDbvJBwegBB/O70+egTEr8nIWYEF1HrLF7YKhV817d13TF/e//Y7KbiDfv/t/WvvGG807dfSdD2C9WUyyXfbsKBIzEXm19rXgO5okK/O4BjLpoKp4z74bNGO3bPRuhGsxl0PP4tjLJk6wtA5pJ/9yciLANbZ3Y9/FByj+23fc4lEpiLuTvSxj3V8FXw4f0ZZPTv/luOvb9JjHJx8yzGWSyVimzhhI2dNHMxB8zcfpqzvH9frx81JFazxzYfBpAqPTZZr6Pja/9AjH4xr8FdsTPKWN9ePnrAuo9yIHxYt2+CtoUevEl0E6rOuu0Yn39xqPtLN2EW4OhgWCfT9mGpkLHZGs/zCD18tTB0pG4PKjkOA29wkBAm2I9C6JihmbOwh3Z5D5NFDUs+kDicXOS6dZ0NTkbbPuIl3VwSuaZt1VcULJPiDM+V6uhk4NlCfc1OT9smvV4Q6koFr2hMV8gHyp1SZIlmXyMSGgW0kdNo1xBZsZAUt/OicDJn1k+DjpqLq0InvmR6xahv96+tiQVyHIfMjY6yofuIBPggtlONubF8+sh+FS3BGomtjqgXIpzLecw+5bLFsmWBOlWmKKHFFKP2Kqj17yMtSZbp2XUzp+y2fBsDLAvScDZNiqdexSFOhS5f3lWWaJLroiSSftefHlTwlTbWL8Arz09hMk0QXhJAUxN+gZJ/LtVkjfyaWFnHKUV5LJRpKwS/KUTEv7rZcm60/PBXdWi2DBahkSqS2K/hZmJj/VeHCrSs78mtC3Hgs4T/frB1KXHL8qbvxoCMXiecJcZwRTyhiZyjcUAzsqqK6irhlGLruPoIV49mI7p+QnSLBVKe3sRG03cJOJ6aN96h/zM6IJxSx7BROEZ+4lbeRb2ifIpMYkWriNKou7e1cy6MiVsVJ+cQ7Uai5aeholDtWEWdhy7KFmUmtPl2skGIBfbCW7br+fpa+iQlUJfELRlyyMDOpRWxphYM8ALu7VvTbrvWqNYyxDlkcI8qWlpPJylPiklOEgVUsPtRVfxjRftwZpvUVl0zMspOdIrciXqDrS3a2tJxMFqUF9h76AmCbhyfn5yeH3sxeSZw6CrKFzqSyWCy5tCQRgN3fPghWOA+2V2OIb1B7PFvoTKgCMUEQlmKEPLDrTzROT1cOFcQtHdvIxK1smp9EF8i82t29MkVr2gOsSfKKjrm6a64+uihgM1vpTKJLmxmGRVvAJbOG4oh3ELtdA6RYScokyXcbVpCwoHAL4hVU9A+VWeQJNEbMjB46Juc+bE4Ezq1I9Fp+jJeRem6ipdCOzXCRiSe6BJ1CfXIbB3POIcZe4x5lvUoi1ZDbGm21WDii2Q7dfweTiQdr/Naoz/Jvme3Kjo2yqKxEqiAHeVniaCSovrO1W+v1tnnAP7x+/YYv6fZqnWGpiBzsb9IkR8lChBKq115zw+2thmsj5Hzg8X6lmzU/8mUfSDUTh/+H81cLEbFvibrvLxSjNp8kovqWg+vtaq6+5wrfcVud8aIsK5OnjtPCDi2XHPIbvjmPvdIxX/oJIMd4UVbc9rDOaWGJc8jpbm+gYKt99R1X/DYijo1FAf6AiOd2AHK+MWs+2qoweI4XEPhDIp4rBWlWq58E4l7/URX6Gu0P/06Yi+TBekjEcwPf0hOGSGIbeq1ZaOLadx5xtFDpUoqu8XCI52otmxH/UUCrfSbIq5/FUmatYLRY6xClvu7tLnsQxGlnbsj9NdENKZUKaf/upJ9Z+7ayaqO28WCI53bzjjGWWjMj/r1UShp4uulvpwikGRHCq/NGOsSH0RsxZufRKLiuzHasbPlo735tFEBc2CeTFvFKaNDF7/K+vay23MYp8X9Ipfftm71P4u5Mn+5NES2dA1W/k4jP8px30fIQL4toP5MxsvpFLJV2Zc1by0Nc2o3/Q1VhpWsvZnnOu2h5iEsJJ95Q4h/F0nvPibU8xKUVN+q0kub+ip3Lc9byEM89E9j+SGeXolvl6UxPeReB1IEPnbjYrbxWEY/pVPbPt1+Uy+Wjs8b5pNyHh3617fXEj8rJNq3PtiYdr1KBr/lsn5UE+5Yk4ruFy6ur0/Zw8gSiVyldvqL1RjGh8BUnJeJisMoXFXFVmpWTM77OmTo7XL3xHNbqCtBPhDMxo+jEjw87UtUI5R9BIF4wkOli7LoO6scGANfaY8SqkXo2Qld8bHYFsYSxeigv5SxaS0h0mlb463jPvIR8mWJz7bkQpMi0IlVrbkuVytzjIPKk0TGN4AMjvqqpFRisHPHO2In8LBjlle23tod4ryNGLrw5AzF5vV9rZukf+EnQe308Huvc5F/atZw7VmYcIhSEdr6vCGbkb4zUgusR8FsTJ6x4l7mh8nZuIFeiaaB+1AmlTnw/5pJCSd3FYXxdVYoWSeCZkYkDwrckbg6QlHdeRn4VwzMKMkuduGyT85KGzYm3CFgSccAhcon4IeiubklcN+RE/1J8ZN+U6/jNPKiZPvGc3NkCSXmbkgbNTboxYRIAiTjsr25LXAnS5WzGvTjgpKbTmRvx3D9vAXxa0FxIfGKtIGBX3dN/E3GDb+rc9tUSB9PA3Osv8Njyifsv2wD1iMxZEt/6V9xF/1uqK9g2z18Kc6iAeFeoxg/Q0Y1s7q93JQ+mJ9ZDJbcOGV/kXLcwNzaC/QnwpUWGg1p7ay6s6m9D2C3uEfXD4xqtK1qwB/Ivfztx5+aN6qL+88kVqx7Dv/sZmldhV+Ab3Fyf0mBNmrMoORtRHEkOGuerh4d170GoEx0D7i+bdSYFcWx78au9DWAkgreHrEWmjHs9ZC26cwruAtw8kt4MiIqmFvoqLwd91atYrAr7/GhMjSy6gDi8CYGx09xU/W9OJN5VTGCT+FV0nA/jhS9cxfoneEuUG20jHkalcHNxarN8Jkq8qn/kQhDffSRFhkgcRveDvPHAXlwVC4D9DQZdzlXDEV9XfcMkxLmsL2D4C/MaF8Mmzu1pLYStGWZ4SJ84YV4df/rvWfngWfno/R/japVdhFATsoETo6j1esRBo4crwaBzP4w5qjo/cRLiDmcIRvFDQXbGXnQT+B0erbAqyMsxD+L04N7o0HOqQbMRaoI1I27uH3U2XhcCTBDYZgE4mCUq7j4q/zGh7zBq5IYpXKWOeRdJBBekXJsv8VrwnInE4bgZ4x9hxKHNziFU37B1dTHQHfzjoEV7A2LU6oVN7lb0UrqoW1kQ4sAC4bP1Rf07Iw5NC65eVA4X8lIhfhUC9vM2gFsgeNIvQxMxymW/IMRX1MSIus8OmDYZ8UYcwqj8AJSmQrwQTi+9gJOoG5eSJY8iSzDsyBeEOCApu2aBgO+83IBSPyOpEAfI2Mwmsg2x+EbFi+hPe4p/T4k4mxtD4iwziEAckJz4ihspKEMWDMhIhXhNwDhUNGRfPcXQmS7xkW0g/RphQNxABikQiQOSE18IFDNth4IGeSrEeyFhzzQBvYyUOUOya9Imfuq6FfIV99yQuGGSSXDvyhXSCgMv1kTi3ErbfREPh0Mva1IpIi45zcGgGhSlSryHfN9wy/R8EB3kvwy7b/Pum5fRhasyUoZSrcndH3HvRQ6TiJtzJj5E/qR35K+eDoJcCUPEJ9UCbXzhiVs4OfF5t/GCn1CCkGbfjZD3Qe8KaSqS9uOL2KsUwinn/ffj5ODeLyXkGUe7QcEW4t3wL6ILn2irAJ/5k021UrfHe8KkfoKtYs3bVrFML5FTz/AXTGrImzRYusM3B2BPK118gYCvNknI4lysw8gel963DezxsIWla6u0XbRT6w11I7IO0WWHFGDhKsCcc+L7OYGPMMm7QFMhPhAIq4xuX6rmn/oMyEXIMeAMiBWI9nj8dpxmKPoJIEwSep7yLN9H9iD9KtAnyIXGRa4r9posuOaWINhwPp6soligOsai+Q6hech15BEzb0QExBNE+6dB3AJN2sMYGStC6t5dVX+zKMRBR8698y0aKlnIA7eSP/0FwdOJg4fmgP+Lqn1y1xReBFwD4ramrk1ZA5rlIr747aYSh90KsA8BkBWxQA7NbW4La8fTiYN1UyGYPSLOv0M9WmUII1YislzVofJOAFdjCu+bSk4cWuTRtLMOFtn8bhv4A4SuvN6QuE4nHnOnc9xavluM+pViFIeiCm8zI4ctWOGHYVcgtsWe/WbtLbvKFpJ54jR/k0Sci/L02uoxXKYM3N58DFx331t7Oz5c96at/GomiFCMMd+bMHbr/Lh5XN/3nxwuXsUs9Sh0a6SD5FTRNYB4FbM1YLenB1OfwET2VrTCb+i7NCnUxQz3YGx9+Pj14ye9ColXx398/frxF6kuH2u1+bLMR8Wtq+tpTw7K5YPIiQvWM+rn28C5+7yr3m/Be9yfPg2HBy4myzBRvt+/NkGAkO5EXpQOjMlC+trVXgvGZPEzo5YB6+Z1c3Yvz2gGcL6MQ+LVGz8rxXNxrac5KVIQruwkq9dQ/VVh3sj1/C8mxh2SOQRXwiX/5pKEGXx0ofiWox0YSkeDGWeWVBMGHd8ExMGOzufCwDcxmBm0zwlR5lpkwLxQ/VHxjjn5aH6PHxGXA/FZT8FFsRTVlbyGzHfX8IFgmlWaez4C7X+srMZvWhaQx8eF84ZgXFQsU2BbKomrXjYsbcvw3QchcbOgikJ2eNPO6schN6RMvH0hR9GMMiKIbYfRFSIvRQCxyMVNKROIB/19YuJS2LrvZgiJO9aWjNwWQ5CtYtweCSn1cUfYcjEju1zcz0knMFLqYLEv31f6vzelIe84boX5LHxsEhOXw5q94oA47a8LAiNDlWZqQ9gs5FVsKTYjjvjDzSZkX37yD6UQcU2RekIx4CnDKc5Va8wweDZpP674rl5pHhtMbJ5ScU1gYdiusucV97oZGOnSu+6YBhgcjoyek0gmlZQJgRrEYrtXTdSP17lamyvqeEHSNIUO+Oicq5m8jZNnj7vP/ogetHHMZpZWG/v7OW2UL8UZ0B1vP6dfzy0O4ypabQPUm8ncc31F0DqZSIplKytK/1/9ZIVuRj7qNk5UW2xDNfdXtrvlcvmsO3lvcxKtNrpH5EjbK6txp7R2SztXV5ftrcnWc21Y2jll9aZMbC4KpN6rnfaos+hpuDJlypQpU6ZMmTJlypQp03Lo/zgGgIQLe1APAAAAAElFTkSuQmCC;" vertex="1" parent="1">
          <mxGeometry x="-90" y="180" width="215.48" height="80" as="geometry" />
        </mxCell>
        <mxCell id="ExcJWYni0PzGswyxbrXZ-7" value="" style="shape=image;verticalLabelPosition=bottom;labelBackgroundColor=default;verticalAlign=top;aspect=fixed;imageAspect=0;image=data:image/png,iVBORw0KGgoAAAANSUhEUgAAAWMAAACOCAMAAADTsZk7AAABMlBMVEX///8AlTkFmAH///4AlTr//f////0AlAAAkgD7//4EmQAFlwHM6tQAiwAAkC8AijYAhwDx//eHvJNGoGIAlzcAjgAFjhhkq2AAhyC727kAfwD/+v8AgwD5//sAjC7c9dy+5MHw/++AwYIhkiEAky+t3K2VyZRWq1LZ+NrY8dfO8M8plCoAhSTy//AAewDp/+wAhCoAcwAdiR5DoEbe8d8AjiV2tIZNoGLy//82lUlrr3sAfh2Z0KQAeCOv27g8kFBbq3GBvo0AgTeWxaJ/tYs3nFWc16qv1LrK8dpbo2kAfCKh1K9Sl1l2sXLP8s5GlUh6wIlwsm5ZqFo4ljh5vXNzqXK47LmVxZTb6eFpwGtSrVKTzI+32LFNoU87mz2677QuhUKY3pwyoDEAZgCCsY9knnQyZ18QAAAbZElEQVR4nO1dDVvbxpYeezwjjeQPiUjBIA+2QVA+7IiCHQrhQiDhJmlKUqC39DZLtnt39///hT1nRrLlD8B2yOa5QedpKcWyLL9z5pz3fMwMIZlkkkkmmWSSSSaZZJJJJv9OwglhXH7rp/h+RRBGJOdSfOsH+Y6FEU4JoBxkIH814YKRt8/35jrf+kG+Y2EkOtkOy+H23E/we6bMDymCCCoI56K43yp4Oc9r7RUFU96Pf+tn+04E4JVAJYR7sBgWAONcrhC+OHQFgJ7p8kMJYMmI+/wFIJwLcwUUr/y3Q5dlevxQwglj7tFx6IEKxxDjz6WzIgm+9bN9B0KBq2HYEb2sejlEFn+isQC8vXD7JPrWD/gdCJWMURIdVMq5EQFVLlfmmuD5mKCEfutH/fcV8HXy/X43LIxijKrsVU6PBMZ+mWGeWUBFm8+rZc0mxqAM0P980sTLMoxnFEaac6fo6wpj9Dh2fbnu/qumEJmtmFrU3GdyrtL1KojwOD1G4NEJht3KEXAPwTOcpxHKOcz/4kFrPLrDNiPcPqgDhdYYZ0hPJBTTl/J1NSbD90rB624fAgX51s/9bySUk8B9fVbWRvd+jIEtF7zWk1cuozSLricTymhxrxX2Io77MUaYy62XdcEzXb5HBBJdAZHz31+E3sQQA8g5pB5e+W+vJFMGOXN/t4gQEDbDD/lmv+VNYoaHkS7klp4cSSxJZdp8q4AOB/LoSSvnYUJiOvEUyOGLlw0RZGp8qwge8GjuRYg+bBLONhbqcPHEJZke3yJY2WhUltCyjo/s7pRCz3gvHb/J9HiMcEoJc9+8rJS96Q3xMNjlpQMwy0xkRG5AhKA8Oqh2vxDfGGTPe3YYQRSTYZwSLgNyVCkXCuFDYAwgh93TBSIClkXWPWHy7ctqqHNpXw6xsuZh63mRM5rlPEEoFkQ7B61urjCDpxuHsafKUjlvqTIXkeDRazLnEDgL+QrYRDqoU1nLydJBA5cPXe8tnR5xiEcetS5jiwQhxSdVHQ33wUG4PJBwIqLsaRmZBYVyuPTu7WMPrIFN1A9Oy2FuMKyL8fbUL/djrCsiY5IbOEqVuc4jpxei8XMYjipgIbfUam1vt1rlcBK+XK62lsrV7vBoKOSBYRQfs7HgJNoPcwOTPC7StV42OlHUKR6etbzcHaqsUsfdJ0cdt1l8dTqcDtXVqPD4MfeEC1JcGpn3AFK4/f6n+JL2+9Oyd7v3QxKx/UuEvURg2E/LCOqQLudyFfcR5y/oKMaos97pOjBmdUEQEPd59fZMJ/y9OwdRomTYZB+d5YbNMvrODONhjAu5F0eCaz/FuaREHHZvNcpgG7abAZccKQoL3i55Q5ciQam43/h7fksZgzH2ZJ41SWxBATzgt+7x7XkML3eg25Cx+k86Pw+PBs6ADOMRkMMTfEWRWtVTSHh0XEYjMM71edUjMOtx1V+4x8P2ODeIMd5Q3NFUBDHRSPKZxo+R3IHScYRbqmEmtM/G74zjsXtM9L4hNjtQOuaz+88lZuwfGePz0OPNDd1fkrrKKo/V42ojFceJJyO50QGM8avgN6Fj+4ooWqjRZVMKY6qxpQgOwjPSXi4p9ubJNEp3deFxrIjxBDbsJyGSkVvfAJ9LvybGknF2WPUq4xoLFcb9z74PY1waJfltXwUwAXtDR17lvcYY2tNi+M9gDZwBagHcoP8wFPv8b/e2WB5OdBOvknz0k/si7p4Wt8ukGINLO2+Nr1JPhzEuK1FAj3sacK96deUgLqBujKXfEH/coM7CW1kgm812n8PcCYpUI5RoLldLiO5Y3MlGn2tCmQxjitolX3fHllGnw5iR+ur5xWp9rCZzAGnzYv78gxz4MqK+Xsd/Ylnv/doUqTZ+ygRrfnQc5x9cPQ8D9lk/XK2Pn98UPipqHDZcFnNUsv7rL+ebQKPGpQnhT+1PF/OrchaQx2GcK5TnRq+k3FWLFUbSFwMYU/FkJG3Rwxgmt3CvSyXDcEprLny3YfvGmHte823TuWzLeMqDXRDRTslx4J++lJTULkVKvSmR7rlvWXZpWYBOgI5v7OKF5xEb/iCYlzRoXjyFm26dNCnOB3no+Lbvz9clPlfqWo50ibmHK45hOvPuDChPjjHMo+LpuLaWyTGGhxdrDqBg5C3nEL7M8PMydlSDV014lcezlknJVku2YeTtWJJfDMN2GiJ1Cxas1ywDbl6rB0DvqXtj5+F9/sWoYsIgbNz4edOGEblwcQjgrZZpGvZWHX1C6lJKGQ/Ip5qVtw3Ln/+6GINsvhiT6ZwcY3Apr2qAUR4f1zkXwTCB4PLSMGAM8saVK7UycR40VywrhXGCMGBs77opk8PFr74FL1mlNWAtkjQcgDBvW7X1kQkjWbRjwj3hxnbpNzdgct7w8ZMtwzmCYR24mLH2pQ+fBo8Nozo9t5gGYyr4q5Y3QuCmwZjcIAimgSiXVpkctsnuFqopXFOqxw5fUjFvWvYQwqDNILZlXssUGcYRQiD8ZTXBf4OrADbTXx3GGEzWpWmbgHAeps3iBmPRloWKioO/spB2FXgj98bHZ8K7mf+YPrs1BcZg75g4GIn3vClsBSdbecO24IvD89o768qapr6QbK/gC/m85deJ5r+MbDj4HvgbfMW8gtbW3zdvGaCjcI/4Dkz+YMIA5W1zmQD7BtXEkbDy/mo65EFqTcH6Gkrl8cNqoJv1FcAXroWb52ubQeqhwLRf+zi14APBWJzLr6rH+DXc03DY5QHGfDKMQZ72MAKEdpoMmzBSw4gYq5dL9ZihcblsqllqDOoxIIym2byQpB/2/6AuygPGQC34vKH1vbSaHkcBlp4f1fJG8iC2s0BFezdvWlY8P35cJ70ZxsENO5YVX2z7a9Nz5CkxhgGvDEXUU2KsvoQWAwBC/5KiBoixkh7GcrOG6pVXOpd6s6Wthe18CBJyoTCGv6Uw1vdKYwxOUsrG07zRu5ddW4CXD00zr6cJvFJbgIt0IErFP3xLuRBUc6sUBV9bj6mkxYo3WPmbFWPQTOcTZTIdlzVHMCbn6PwVcgll06IUC3zhvBTxHRDjfA9jMh5jbCSpb5mmbfUeBPSYBvWSpS+38cFW6oGOhZhcdrR2q6lXOhfTt+VMaysYI69bA2n4GW2Fnu61xijGg7bigwNGRVmFHz5spOR3BwwoOkPn94RrJbbC7mOsjIE/gDFQxo+GMsaJ83QWwIDItZKdWHpQ5e0mkD9MZlw7eat/8edITB9Q34sx3PGPP0Q/XQB0/HkrbSym8HkxxvHMR4Nqb3Wo5L2WcA4Yo0u0LMSYM87FLvg75Y626sFAbLAMXMvA6buTUC0KGKPltLStEPOabll9PQauAjddQ4Zn2vohlB5jlvynixKSOaXfQFh2O2CDpAR3Z8TOFlzC4iYQ64fHmBJWfE3TLIu5B2HaJE+NsaK3tnZI9lU9ULln3sO4p8dIRNYVa4XrwaGzdIaT1Z9aOiAprQrZwzgf+zz4ZjL2eT2MKTCVIACFzcfqChMB/wsYY2zdvvANMx/7PcO86QCNUoYipoqGtbM507YoE2BMij82dNIxlqDzt9wXYozkX3MA/1KiHtK+Hqs/I8YwsPLSR2VDgrURDCSdJfnkKzttWrV45x0q/9SRyi0YE5VFUrGg4o+mYm4xxmCzOru+rXkwsmbjY0QaGN3h56sPqq2SmbbruN9WcFKsVhZIaopwstlK5X1mshVW7MUBzTXSo5wK457PAzvbqOW1v/GXSTAQsUgZ7ZtWTE94grGJd7T6GCsG0scY3GN0pYyxlTcx6lYsW2GM1qr9gwnaqp8PZsPNJycxJzh0tUMmvw7GQCeL1bDSSdFYgP1ou6/Is+ixYf5zRRN+CKpX+QDGfVvBOlu2UiLbvmnKoWQxWgsVmiiDG2NsKGN+mx6DMd7YAT+J2Bul33wVPiYYMxGw5o2ph9RQnEUTc1sFjxCZCDbbrjOT8Ipi1Vs6k5LyxKdCpPSu3DPJM+gxTOe1NQfiViRKxrOIStazx33uxkXD0ZzY9o/YSJ6Aue8W43zcL4pQBe5uTWXlFk/g4mE9Vgl5cWEq0wNaehE5WkVjjNUt6+Bi85rW6bijF1g6h3LWrQ0mw7jgdV+TlMeBKbcfFiqFWTEGVVsjy0pPQKOMS5fp7HePH2tekTBcmKcdnSimiWChSDYbKL/Dv2hGhJAbHzZRPnTA7o7BWJLrkqV8nZV/GkWlfN4exFgE0Y4ilUNiW7U1mNAzrgqYDONcoVA96mcWcCl150kYhjPbY8P/RJqXPn5H0JfSRVM//WAMQt4rH4TZizXRHsopgqYytRIQ0xVSGcogWbCGjaJ0nB6/dyxT+S+kCJEzijELNm5Kiivmk8ST0mYHt06atUVkQltRqITbDRE7HaqaPYvb4Rfosb+GqXdMLmJC0f/EB/UYMGYkqiUR1pVgMcZx9RRLfvA4WH9DhDXlUF0KWE+lALcYg3H9GeYyUY+d/2ASbcUQxniL5o1i5CklNkCLYdY8aD1vnK3wcuGLTpwpgSkDk5UcLnq6CWh6jA2wx0h+n6LPQia1uIHEhQ1gzA5V5AVK568yrFxQRtx2U0m77baVNOEXF0Rim1Ig4b8SlRqUfBBjrGY3dzVdBCd5AtePwRgzHxwTJKmIH29wCOPI7qhZPwTGSl3Dd1J9SBySEfeki2URz2ulav8T84prnA4njqX8Xt662sAUXDqWpu5nYFkAiGFdNZG+Ehld726tbG2taNlK5F/wb2uBMi4uPu+C3Ny8wip+zCt0nAcqLud99QfTMi+bFDHOWylekQijH3bMVJLPMvwLl33J4qHJMS7kugcRtj5o1ydk4O6V9Xr/KTFWARZgDCHGmg/kDaemsdsMwFEhxjqW7vCNGubM4VXQeRIIyuotP/Hyth07fZ0vso1dCdZY/umrITKXQW2VHiv/pvSYy+WSpay/bd64Afg/tMcpftxDRLL/NHVAjwKT7nMdFyTN3t07BcYFr3qASkyThgTu/hVivmIWPfavsbrHpaqLWHkDuJRgGmOdp61zsYwYgSkxL7HnhdNl04j1K99P6Orckn+EPSDIj+O8G0v4McaMgHHAVx0FMNyzVsd4jyqMR/WYko3FdNnFsEsX4os6IifHGFdQb6/zXkyNm5JtVNBYTIsxuhHQY5zODJXVVuyhtIYOJ7bHdqkj2eaiSqQDCfkAxluIjwpaHVoPMCvbuFGLhwXm3fDuv3Has8caYwpU21C2wXY+ScrgZYXxkM9D3enspPPUCuRrfnuP1kNiXMB+zrNiwhHBk4PevYJ4DzAWU2KcR5+n2qDkmy1MdRlgdRcblLkrcaLc78DtL0yVCDPM+TYYKbmLQUvCpwxbZxFUOsHfEBxCbZ2jB9VfxvxKgjHaCrZxaZgYQmNBFfyn4IKNwRiClACujItacSYInd6aK2ZqrZgSYyXhaTvV4gET8rDlFUCPezJp3g24WzwujUUV74GWrWygHlv9WNq9UpoH4fYn+Pb8IkkeKDtqxdUJiHTN35SWYSytJnc6llb5Y9G8UjlouJ15kSSsR20FqDdfr5la3e2kvIUOxHmNm7qy6Wt5M2DsdQ/SeRHK5MESYCym5cd5M8YYe7x8lQUD+K6i5oppJflj+MarvqG19WkbpkrxmdUPwQzTiLmVDSBpdo15N3RigzkhGzC+MJXdBxt1FQVx4mPU5zHOoi1DOeXE5elpY9r+nKTi/wdjIBGvUg4WyH6nElaLU9oKdP2JHgOHutJ1HEyutbe0u9H5CgLWWiutA+ZIysOn/VKT75eSkpxxmeSP/1S1pjTGuma6WdLlKtve2uDoB3oYD+gxE51500iAzcfsReWk8rUjzmbcxmdKjEGTtxfSRV7Gi3/NkqOPMaZALtg6+D1Vybed//pXKn8M/OvvJZ3bNP5sYtdfu7Gakj91ksx6tsl6GKvqxmDezTb/uYNmPdZ4EbcasjEYR1dmqjBr+qmmJGtxddZtv6a1FQBYZYP0BhR53Nv/nppX5Ht6jD/EqmObliqj+UkQixgLxtpXhmpgwSwzo+lAgPJiTRf6IBCPl1WkaqYpW4FpfAsrRkApVgVuR6XvMODzKJEiaCLEScHb8m9WSypLpzorIBbFR4aHmBroafUY1+3tRenSkxD/86ZPbCaO89b648LEWkmRC8XUUjVTIC4NNXXha25FMh3KYsonVjGnrjsvk5rpsM/T9ABtvnnRTlnUAT0G+v3TH/M+MvU4ujOu6uLQwfE1NCPM18Bg8RmqTVPbCgCs/E6koh4ZyD/6Qzuhz7PTGFMp503tanQirl8zJQQIgU69nQiSsoeca8ILbmxein5/xZA9jkO1OL7bdtM7rw74PMqxnoe3wzfgxR87wDI+4QyLKyGGVWvARwVfXY/VyvPq89RgYvf6dLX/tK3Q4LDmjpHXQXbKVqhc2u+OpYOHrYjRfsGLuVeqYGzbT6N0n9A4W6Hph2mt1EmqWY0NYkzdq5Kh1F07x6uO2goXzJh2nNj4ZT9bwH60r4yx7tpUyeQ+QumWtVlsBXKm4pbq/+t1XCmfJ3X2zFB/NpcxaZS8gx6WLBPzGT5GbQO2YrAunfisvO00pExPwIGcEBVYgsW2NlPNs48RrhUJBLl2bCupYxvG546cPuCbWo/V6952xMcfDwIY376uCaKrp7rNzzLXBhKFjBzVsDrRy8T0eljYpqNCFIDi9/p6T35fVF3Mhl3rr3cHjM18r57H+LzqjLCUQYFROxl63ijOESHGkkelpI8C80yLUewbsdsNtVsXR6zSAfn6Pg8FV7AfA5XnY0Cm8g6MAdancVuTvzaUjJVrTirPk8JYXGiXYxulUqoby8Bsu2n5n/ohEeeAcU+Pmbzs6TEWty7coeMJFMaxHgu5ZhpxawX8/LyJRXD8fIjJwSHrfht8itL69IcczIJxwSsUwuP22GaDO/WYC/7UHo6lY8HsRJ+O9nuxBNtw4ljA6g9B3ONnWotR3z7SVC8W/l+CMbZIGDeSDXUOpzEm7V0jxhh09lmdBTw+lYMG4sDBgF3dzCh9pb7NEYxxY4DuCR3XlXQnxlTwJK/mrw0Wbhh2ttv5Xqjc7ynkYk+Fzbobop/VVaFh6VqmTJb4wVR6CBhTyvmFGbdwgIt1GgEbDITB5+mxyjsQVdVXerGHXWtwXCES1yJgbM59xcTVc58/YI93yuqM2uOcWl0q5GiBCzEe2Qujr8dkK85ogR6nH4Jg5qKxgkUPVUuzV6J4Qy0hgmhFN1lY6R5k7SB326mvTPlvcY/3mkAtXC3pjA62GDcoH86yu1voCXH5SJGLaEv9imq8tamW+MVDx5FaXpR0qgpu/ev0xelbMU4GnfJRjDVwrTeq4WAoTXKnz5Pk3NfzsbQ5nF4BhVnfUa4d1NQ8l/E04QzX3OSt4YK80qtBi0ODDw6OhF3bxIQ9cZ/qrjYjv7g5hg3Ic9PEwTIvXQjpl330q/Bu1Uo6iCNrL2PnrPITmw+4HuRejAthxQ3YyIrcuzAGXe3ojEDpcmQZHAVUF1ZM3VbsbLLeBTKIdqzhNnqVcbQ+t9NnGbHAvTLARpu/uGD5wWkdOqojyP+8MK6QQTtbPrbd7Wzg2qlNbJexTGOrgSsuB1Uexvm8ZKlMyOhzf02MvUJ4gJ0ioxjfbisCV9S3Fx3n2bk7nMMSDL4pX79YrJWc2s8LvYV3uHqDXz9brC2Oyo+vsNDWh0KSjR+dknMVwc0E3EE2buB9V5+aY3HhJDrfebbzSyTUtWvPSn6ptr/OsVd32B4wdw0e26l9rI8ueJsd40TuwLjQfeeOlBLvwhjuBZhE61GbBMOLZnGPOQ5/dqP1elOg6U5cHnCyn1S1Py73a8H/a8o0WwUuyUl7o7EOU13NLx5g6+GtfRFSBhRfDgTaJU6a68WNCOMhNqI4GI24641GJNldK6onxxjAA4z7yQ96iz3GivQb1XMp+l1aXDwZOXQoZSuSnSHHLEtWbFu3xKeW4/fOixqfi2EkVR7APQEo0yughTqQjuuF2XS0WS7+THwcvQqVx4uhcbn8CClNvZvTqYnF+PXSgLFInl6Qt60xGGtdrtQZopyqjOB66VsxfpwyFmOvfNLbSQB+NG7DOOeFpx3VW9a7H3P3R/YqyzAeY4+93FmTxcZCUPluzJFj8XUQ7zWDdDY56LwY3k/o0WM8Zq8bnOrV99pWYWrl7bPbNndDLFu/toO+G2DkfbeQYTwoEjAes3mbtx9RTIlzyuReeAvEuuViac8lDDcIYpQGZEGt3hu6zCs8aowhUt5GgIdQBkPbQJADsnm8dPd+vXDp80itaSCi+XzJy43EIJVHrseEdCrhqB4XCt72QaP+9u3hdvmeg0Ig4OvuHxwVO2+Lc2dddWzh4OshYL7/uPeCFIfPvNHduwGnMu5pujTBUSxwRbnaAumG5crozpwQq7SO7n+S71eA9Ltvzrb1AuhCGrZkn1PvnvOECjm973G8e2k8QPFL6katgzfZIZHu+0rZuxfMe2VwMqhNvdEn/oVK/OgxZmR9b2l0M6YvE32MS3fnuUs4nz4h+J0JxZTH0fFMp2DdLriOoby91+Aj6Z/HKdh52n5/Wn1IRS5UvO7ZkUCvqnYmfNxCudoIkDQPWnr7ti9UZ328ghdWTwSe/427jD7i3Y/TIiSXjdOuPlDhS3UYMF56WeTZITcDgllTRjpzZ9Wpz80bEeAoS0/mmtmx3mME98pxT1rhl1mLsud5S8/v2q/1sQpVvc8SGEbxydLsmqwN8V6ds+zg9BGhvbXQxMWz0dW29JMfJoSiHabX3X/lxluKZCjfIpLS6PV2V51OOo1t1sOxVLluz7TrzqMSPPqYdC521Lyfxmp4lUK4s9fUdieTu0To/RIPMYcx3Wl6YXf/KOkGyGC+S8BZqRP16u8q96Tnh6S8/78dEsR7kGcY3y/orurHXe/euE8dOYbNFtXjepZfm1YYc4/O7iXLOoXpVfcbkj7ywwhnENzNpHMMIcnd9TxEOawedHDxQhZ3TClU7Yb9dq96a2Fa67EXbr/bEEJ1ymZmeDrBDXpwYWXjWFf1RtVZF6OqT4oiaePLbMUMgi159YNWGBuFATOsy36tk2YWz32ZgH6qhedeboBh6ADFCyt7m2T67WozGRCKcR8VxUp1oFlQl6Or+0VObus8zWRSwSZZbB7vnFQGTgnyPK9cOYwe++HRDyGYe0BPJinZOK6Gykbos+bD6ruOsiTksZ8f/XDCiLv+F6aWcVO3CiBcl2TGk7gyGS+4LpBH19uhOg+9e3r4mI+B/VqCW6ZxXjzrhjmv9a5OZljhk8k9IoBf4DF678+2nxy5eMRiFtQ9uMR7QFLpxketZoTiq8nsuy1nkkkmmWSSSSaZZJJJJo9O/g9sXpvT2hQYowAAAABJRU5ErkJggg==;" vertex="1" parent="1">
          <mxGeometry x="270" y="40" width="225" height="90" as="geometry" />
        </mxCell>
      </root>
    </mxGraphModel>
  </diagram>
</mxfile>
